<svg xmlns="http://www.w3.org/2000/svg" xmlns:xlink="http://www.w3.org/1999/xlink" fill="#000000" version="1.1" id="Capa_1" width="250px" height="250px" viewBox="160 -30 400.101 556.1" xml:space="preserve" transform="scale(-1,1)">
<g>
	<g>
		<path d="M252.924,82.288c0,19.817,16.124,35.94,35.94,35.94c7.222,0,13.941-2.16,19.581-5.842l7.454-6.49    c5.529-6.322,8.907-14.568,8.907-23.608c0-19.816-16.123-35.939-35.939-35.939C269.044,46.348,252.924,62.471,252.924,82.288z"/>
		<path d="M354.388,98.31c-3.087,0-5.967,0.857-8.442,2.326c-0.03-0.006-0.052-0.028-0.082-0.034    c-0.056-0.009-0.11-0.012-0.166-0.012c-0.266,0-0.529,0.095-0.731,0.272l-18.513,16.124l-8.724,7.598l-29.597,25.777    c-0.272,0.236-0.392,0.584-0.364,0.927c-2.028,1.604-3.715,3.7-4.844,6.221l-17.913,40.064l-40.475-21.435    c-2.476-1.313-5.135-1.934-7.754-1.934c-5.952,0-11.701,3.21-14.682,8.834c-4.29,8.1-1.203,18.146,6.9,22.436l56.154,29.74    c2.417,1.279,5.089,1.931,7.77,1.931c1.82,0,3.647-0.3,5.404-0.902c4.342-1.497,7.874-4.728,9.75-8.92l18.92-42.314l31.9,55.57    l-41.163,50.664c-4.382,5.395-5.977,12.533-4.303,19.281c1.674,6.744,6.42,12.314,12.815,15.033l86.167,36.668    c2.827,1.203,5.765,1.775,8.656,1.775c1.09,0,2.173-0.082,3.243-0.242l1.992,2.158l17.035,18.473l10.664,11.564l0.515,0.562    l10.146,11.004l26.687,28.938c4.363,4.732,10.309,7.127,16.272,7.127c5.364,0,10.744-1.939,14.997-5.859    c8.984-8.287,9.551-22.289,1.268-31.27l-9.162-9.936l-28.219-30.602l-32.837-35.609v-79.354c0-2.442-0.41-4.783-1.142-6.98    c0.202-0.376,0.318-0.606,0.33-0.63c0.162-0.34,0.145-0.737-0.052-1.059l-67.62-110.781h51.411l39.144,63.834    c3.131,5.107,8.583,7.922,14.165,7.922c2.959,0,5.955-0.79,8.659-2.451c7.815-4.792,10.267-15.012,5.475-22.827l-44-71.754    c-3.017-4.921-8.375-7.919-14.149-7.919H354.388z M373.366,268.342c5.492,1.977,10.848,3.035,16.04,3.173v41.335l-38.791-16.51    L373.366,268.342z"/>
	</g>
</g>
</svg>